<?xml version="1.0" encoding="UTF-8"?>
<svg xmlns="http://www.w3.org/2000/svg" version="1.1" viewBox="0 0 50 50">
  <defs>
    <style>
      .cls-1 {
        stroke: #000;
        stroke-miterlimit: 10;
        stroke-width: 3px;
      }

      .cls-1, .cls-2 {
        fill: #fff;
      }
    </style>
  </defs>
  <!-- Generator: Adobe Illustrator 28.6.0, SVG Export Plug-In . SVG Version: 1.2.0 Build 709)  -->
  <g>
    <g id="Layer_1">
      <g>
        <g>
          <polygon class="cls-2" points="22.92 31.27 22.43 27.67 25.31 25.44 28.67 26.82 29.16 30.42 26.29 32.65 22.92 31.27"/>
          <path d="M25.38,26.01l2.83,1.16.41,3.03-2.42,1.87-2.83-1.16-.41-3.03,2.42-1.87M25.23,24.87l-3.33,2.58.57,4.18,3.9,1.59,3.33-2.58-.57-4.18-3.9-1.59h0Z"/>
        </g>
        <g>
          <polygon class="cls-2" points="18.96 30.26 17.55 26.91 19.75 24.02 23.36 24.47 24.77 27.83 22.57 30.72 18.96 30.26"/>
          <path d="M19.98,24.55l3.03.39,1.18,2.82-1.85,2.44-3.03-.39-1.18-2.82,1.85-2.44M19.53,23.48l-2.55,3.35,1.63,3.89,4.18.53,2.55-3.35-1.63-3.89-4.18-.53h0Z"/>
        </g>
        <g>
          <polygon class="cls-2" points="15.46 23.4 16.84 20.03 20.44 19.54 22.67 22.41 21.29 25.78 17.69 26.27 15.46 23.4"/>
          <path d="M20.23,20.07l1.87,2.42-1.16,2.83-3.03.41-1.87-2.42,1.16-2.83,3.03-.41M20.66,19l-4.18.57-1.59,3.9,2.58,3.33,4.18-.57,1.59-3.9-2.58-3.33h0Z"/>
        </g>
        <g>
          <polygon class="cls-2" points="17.39 19.67 17.85 16.07 21.2 14.66 24.1 16.86 23.64 20.47 20.29 21.88 17.39 19.67"/>
          <path d="M21.13,15.23l2.44,1.85-.39,3.03-2.82,1.18-2.44-1.85.39-3.03,2.82-1.18M21.28,14.09l-3.89,1.63-.53,4.18,3.35,2.55,3.89-1.63.53-4.18-3.35-2.55h0Z"/>
        </g>
        <g>
          <polygon class="cls-2" points="22.33 18.4 21.84 14.8 24.72 12.57 28.08 13.95 28.58 17.55 25.7 19.78 22.33 18.4"/>
          <path d="M24.8,13.14l2.83,1.16.41,3.03-2.42,1.87-2.83-1.16-.41-3.03,2.42-1.87M24.64,12l-3.33,2.58.57,4.18,3.9,1.59,3.33-2.58-.57-4.18-3.9-1.59h0Z"/>
        </g>
        <g>
          <polygon class="cls-2" points="27.65 20.75 26.24 17.39 28.44 14.5 32.05 14.96 33.45 18.31 31.25 21.21 27.65 20.75"/>
          <path d="M28.66,15.03l3.03.39,1.18,2.82-1.85,2.44-3.03-.39-1.18-2.82,1.85-2.44M28.22,13.97l-2.55,3.35,1.63,3.89,4.18.53,2.55-3.35-1.63-3.89-4.18-.53h0Z"/>
        </g>
        <g>
          <polygon class="cls-2" points="28.34 22.81 29.71 19.44 33.31 18.95 35.54 21.83 34.17 25.19 30.56 25.68 28.34 22.81"/>
          <path d="M33.1,19.49l1.87,2.42-1.16,2.83-3.03.41-1.87-2.42,1.16-2.83,3.03-.41M33.53,18.42l-4.18.57-1.59,3.9,2.58,3.33,4.18-.57,1.59-3.9-2.58-3.33h0Z"/>
        </g>
        <g>
          <polygon class="cls-2" points="26.91 28.36 27.37 24.75 30.72 23.35 33.62 25.55 33.16 29.15 29.8 30.56 26.91 28.36"/>
          <path d="M30.65,23.92l2.44,1.85-.39,3.03-2.82,1.18-2.44-1.85.39-3.03,2.82-1.18M30.79,22.77l-3.89,1.63-.53,4.18,3.35,2.55,3.89-1.63.53-4.18-3.35-2.55h0Z"/>
        </g>
      </g>
      <g>
        <g>
          <polygon class="cls-2" points="26.17 31.62 24.43 28.43 26.33 25.33 29.96 25.42 31.7 28.61 29.81 31.71 26.17 31.62"/>
          <path d="M26.6,25.83l3.06.08,1.46,2.69-1.59,2.61-3.06-.08-1.46-2.69,1.59-2.61M26.05,24.82l-2.2,3.6,2.02,3.7,4.21.1,2.2-3.6-2.02-3.7-4.21-.1h0Z"/>
        </g>
        <g>
          <polygon class="cls-2" points="19.6 29.46 20.63 25.97 24.16 25.11 26.67 27.75 25.64 31.24 22.11 32.09 19.6 29.46"/>
          <path d="M24,25.67l2.11,2.22-.86,2.93-2.97.72-2.11-2.22.86-2.93,2.97-.72M24.33,24.56l-4.1.99-1.19,4.04,2.91,3.05,4.1-.99,1.19-4.04-2.91-3.05h0Z"/>
        </g>
        <g>
          <polygon class="cls-2" points="16.4 26.91 16.49 23.28 19.68 21.54 22.79 23.43 22.7 27.07 19.5 28.81 16.4 26.91"/>
          <path d="M19.67,22.12l2.61,1.59-.08,3.06-2.69,1.46-2.61-1.59.08-3.06,2.69-1.46M19.7,20.96l-3.7,2.02-.1,4.21,3.6,2.2,3.7-2.02.1-4.21-3.6-2.2h0Z"/>
        </g>
        <g>
          <polygon class="cls-2" points="16.88 22.75 16.02 19.22 18.66 16.71 22.15 17.74 23 21.27 20.37 23.78 16.88 22.75"/>
          <path d="M18.79,17.27l2.93.86.72,2.97-2.22,2.11-2.93-.86-.72-2.97,2.22-2.11M18.52,16.15l-3.05,2.91.99,4.1,4.04,1.19,3.05-2.91-.99-4.1-4.04-1.19h0Z"/>
        </g>
        <g>
          <polygon class="cls-2" points="21.04 19.8 19.3 16.61 21.2 13.51 24.84 13.6 26.58 16.79 24.68 19.89 21.04 19.8"/>
          <path d="M21.48,14.01l3.06.08,1.46,2.69-1.59,2.61-3.06-.08-1.46-2.69,1.59-2.61M20.92,13l-2.2,3.6,2.02,3.7,4.21.1,2.2-3.6-2.02-3.7-4.21-.1h0Z"/>
        </g>
        <g>
          <polygon class="cls-2" points="24.34 17.47 25.36 13.98 28.9 13.13 31.4 15.76 30.38 19.25 26.84 20.11 24.34 17.47"/>
          <path d="M28.73,13.68l2.11,2.22-.86,2.93-2.97.72-2.11-2.22.86-2.93,2.97-.72M29.06,12.58l-4.1.99-1.19,4.04,2.91,3.05,4.1-.99,1.19-4.04-2.91-3.05h0Z"/>
        </g>
        <g>
          <polygon class="cls-2" points="28.22 21.79 28.31 18.15 31.5 16.41 34.61 18.31 34.52 21.94 31.32 23.68 28.22 21.79"/>
          <path d="M31.49,16.99l2.61,1.59-.08,3.06-2.69,1.46-2.61-1.59.08-3.06,2.69-1.46M31.52,15.84l-3.7,2.02-.1,4.21,3.6,2.2,3.7-2.02.1-4.21-3.6-2.2h0Z"/>
        </g>
        <g>
          <polygon class="cls-2" points="28.86 27.49 28.01 23.95 30.64 21.44 34.13 22.47 34.98 26 32.35 28.51 28.86 27.49"/>
          <path d="M30.78,22l2.93.86.72,2.97-2.22,2.11-2.93-.86-.72-2.97,2.22-2.11M30.5,20.88l-3.05,2.91.99,4.1,4.04,1.19,3.05-2.91-.99-4.1-4.04-1.19h0Z"/>
        </g>
      </g>
      <g>
        <path class="cls-2" d="M25.5,31.5c-4.96,0-9-4.04-9-9s4.04-9,9-9,9,4.04,9,9-4.04,9-9,9Z"/>
        <path d="M25.5,14c4.69,0,8.5,3.81,8.5,8.5s-3.81,8.5-8.5,8.5-8.5-3.81-8.5-8.5,3.81-8.5,8.5-8.5M25.5,13c-5.25,0-9.5,4.25-9.5,9.5s4.25,9.5,9.5,9.5,9.5-4.25,9.5-9.5-4.25-9.5-9.5-9.5h0Z"/>
      </g>
      <g>
        <circle class="cls-2" cx="25.5" cy="22.5" r=".5"/>
        <path d="M25.5,22c-.28,0-.5.22-.5.5s.22.5.5.5.5-.22.5-.5-.22-.5-.5-.5h0Z"/>
      </g>
      <circle class="cls-1" cx="25.5" cy="22.5" r="4.5"/>
      <g>
        <circle class="cls-2" cx="25.5" cy="22.5" r="2"/>
        <path d="M25.5,21c.83,0,1.5.67,1.5,1.5s-.67,1.5-1.5,1.5-1.5-.67-1.5-1.5.67-1.5,1.5-1.5M25.5,20c-1.38,0-2.5,1.12-2.5,2.5s1.12,2.5,2.5,2.5,2.5-1.12,2.5-2.5-1.12-2.5-2.5-2.5h0Z"/>
      </g>
      <g>
        <circle class="cls-2" cx="25.42" cy="26.64" r="1.04"/>
        <circle class="cls-2" cx="21.66" cy="24.37" r="1.04"/>
        <circle class="cls-2" cx="21.74" cy="19.99" r="1.04"/>
        <circle class="cls-2" cx="25.58" cy="17.86" r="1.04"/>
        <circle class="cls-2" cx="29.34" cy="20.13" r="1.04"/>
        <circle class="cls-2" cx="29.26" cy="24.51" r="1.04"/>
      </g>
    </g>
  </g>
</svg>