<?xml version="1.0" encoding="UTF-8"?>
<svg xmlns="http://www.w3.org/2000/svg" version="1.1" viewBox="0 0 24 23">
  <defs>
    <style>
      .cls-1 {
        stroke: #000;
        stroke-miterlimit: 10;
        stroke-width: 3px;
      }

      .cls-1, .cls-2 {
        fill: #fff;
      }
    </style>
  </defs>
  <!-- Generator: Adobe Illustrator 28.6.0, SVG Export Plug-In . SVG Version: 1.2.0 Build 709)  -->
  <g>
    <g id="Layer_1">
      <g>
        <g>
          <g>
            <polygon class="cls-2" points="8.92 20.27 8.43 16.67 11.31 14.44 14.67 15.82 15.16 19.42 12.29 21.65 8.92 20.27"/>
            <path d="M11.38,15.01l2.83,1.16.41,3.03-2.42,1.87-2.83-1.16-.41-3.03,2.42-1.87M11.23,13.87l-3.33,2.58.57,4.18,3.9,1.59,3.33-2.58-.57-4.18-3.9-1.59h0Z"/>
          </g>
          <g>
            <polygon class="cls-2" points="4.96 19.26 3.55 15.91 5.75 13.02 9.36 13.47 10.77 16.83 8.57 19.72 4.96 19.26"/>
            <path d="M5.98,13.55l3.03.39,1.18,2.82-1.85,2.44-3.03-.39-1.18-2.82,1.85-2.44M5.53,12.48l-2.55,3.35,1.63,3.89,4.18.53,2.55-3.35-1.63-3.89-4.18-.53h0Z"/>
          </g>
          <g>
            <polygon class="cls-2" points="1.46 12.4 2.84 9.03 6.44 8.54 8.67 11.41 7.29 14.78 3.69 15.27 1.46 12.4"/>
            <path d="M6.23,9.07l1.87,2.42-1.16,2.83-3.03.41-1.87-2.42,1.16-2.83,3.03-.41M6.66,8l-4.18.57-1.59,3.9,2.58,3.33,4.18-.57,1.59-3.9-2.58-3.33h0Z"/>
          </g>
          <g>
            <polygon class="cls-2" points="3.39 8.67 3.85 5.07 7.2 3.66 10.1 5.86 9.64 9.47 6.29 10.88 3.39 8.67"/>
            <path d="M7.13,4.23l2.44,1.85-.39,3.03-2.82,1.18-2.44-1.85.39-3.03,2.82-1.18M7.28,3.09l-3.89,1.63-.53,4.18,3.35,2.55,3.89-1.63.53-4.18-3.35-2.55h0Z"/>
          </g>
          <g>
            <polygon class="cls-2" points="8.33 7.4 7.84 3.8 10.72 1.57 14.08 2.95 14.58 6.55 11.7 8.78 8.33 7.4"/>
            <path d="M10.8,2.14l2.83,1.16.41,3.03-2.42,1.87-2.83-1.16-.41-3.03,2.42-1.87M10.64,1l-3.33,2.58.57,4.18,3.9,1.59,3.33-2.58-.57-4.18-3.9-1.59h0Z"/>
          </g>
          <g>
            <polygon class="cls-2" points="13.65 9.75 12.24 6.39 14.44 3.5 18.05 3.96 19.45 7.31 17.25 10.21 13.65 9.75"/>
            <path d="M14.66,4.03l3.03.39,1.18,2.82-1.85,2.44-3.03-.39-1.18-2.82,1.85-2.44M14.22,2.97l-2.55,3.35,1.63,3.89,4.18.53,2.55-3.35-1.63-3.89-4.18-.53h0Z"/>
          </g>
          <g>
            <polygon class="cls-2" points="14.34 11.81 15.71 8.44 19.31 7.95 21.54 10.83 20.17 14.19 16.56 14.68 14.34 11.81"/>
            <path d="M19.1,8.49l1.87,2.42-1.16,2.83-3.03.41-1.87-2.42,1.16-2.83,3.03-.41M19.53,7.42l-4.18.57-1.59,3.9,2.58,3.33,4.18-.57,1.59-3.9-2.58-3.33h0Z"/>
          </g>
          <g>
            <polygon class="cls-2" points="12.91 17.36 13.37 13.75 16.72 12.35 19.62 14.55 19.16 18.15 15.8 19.56 12.91 17.36"/>
            <path d="M16.65,12.92l2.44,1.85-.39,3.03-2.82,1.18-2.44-1.85.39-3.03,2.82-1.18M16.79,11.77l-3.89,1.63-.53,4.18,3.35,2.55,3.89-1.63.53-4.18-3.35-2.55h0Z"/>
          </g>
        </g>
        <g>
          <g>
            <polygon class="cls-2" points="12.17 20.62 10.43 17.43 12.33 14.33 15.96 14.42 17.7 17.61 15.81 20.71 12.17 20.62"/>
            <path d="M12.6,14.83l3.06.08,1.46,2.69-1.59,2.61-3.06-.08-1.46-2.69,1.59-2.61M12.05,13.82l-2.2,3.6,2.02,3.7,4.21.1,2.2-3.6-2.02-3.7-4.21-.1h0Z"/>
          </g>
          <g>
            <polygon class="cls-2" points="5.6 18.46 6.63 14.97 10.16 14.11 12.67 16.75 11.64 20.24 8.11 21.09 5.6 18.46"/>
            <path d="M10,14.67l2.11,2.22-.86,2.93-2.97.72-2.11-2.22.86-2.93,2.97-.72M10.33,13.56l-4.1.99-1.19,4.04,2.91,3.05,4.1-.99,1.19-4.04-2.91-3.05h0Z"/>
          </g>
          <g>
            <polygon class="cls-2" points="2.4 15.91 2.49 12.28 5.68 10.54 8.79 12.43 8.7 16.07 5.5 17.81 2.4 15.91"/>
            <path d="M5.67,11.12l2.61,1.59-.08,3.06-2.69,1.46-2.61-1.59.08-3.06,2.69-1.46M5.7,9.96l-3.7,2.02-.1,4.21,3.6,2.2,3.7-2.02.1-4.21-3.6-2.2h0Z"/>
          </g>
          <g>
            <polygon class="cls-2" points="2.88 11.75 2.02 8.22 4.66 5.71 8.15 6.74 9 10.27 6.37 12.78 2.88 11.75"/>
            <path d="M4.79,6.27l2.93.86.72,2.97-2.22,2.11-2.93-.86-.72-2.97,2.22-2.11M4.52,5.15l-3.05,2.91.99,4.1,4.04,1.19,3.05-2.91-.99-4.1-4.04-1.19h0Z"/>
          </g>
          <g>
            <polygon class="cls-2" points="7.04 8.8 5.3 5.61 7.2 2.51 10.84 2.6 12.58 5.79 10.68 8.89 7.04 8.8"/>
            <path d="M7.48,3.01l3.06.08,1.46,2.69-1.59,2.61-3.06-.08-1.46-2.69,1.59-2.61M6.92,2l-2.2,3.6,2.02,3.7,4.21.1,2.2-3.6-2.02-3.7-4.21-.1h0Z"/>
          </g>
          <g>
            <polygon class="cls-2" points="10.34 6.47 11.36 2.98 14.9 2.13 17.4 4.76 16.38 8.25 12.84 9.11 10.34 6.47"/>
            <path d="M14.73,2.68l2.11,2.22-.86,2.93-2.97.72-2.11-2.22.86-2.93,2.97-.72M15.06,1.58l-4.1.99-1.19,4.04,2.91,3.05,4.1-.99,1.19-4.04-2.91-3.05h0Z"/>
          </g>
          <g>
            <polygon class="cls-2" points="14.22 10.79 14.31 7.15 17.5 5.41 20.61 7.31 20.52 10.94 17.32 12.68 14.22 10.79"/>
            <path d="M17.49,5.99l2.61,1.59-.08,3.06-2.69,1.46-2.61-1.59.08-3.06,2.69-1.46M17.52,4.84l-3.7,2.02-.1,4.21,3.6,2.2,3.7-2.02.1-4.21-3.6-2.2h0Z"/>
          </g>
          <g>
            <polygon class="cls-2" points="14.86 16.49 14.01 12.95 16.64 10.44 20.13 11.47 20.98 15 18.35 17.51 14.86 16.49"/>
            <path d="M16.78,11l2.93.86.72,2.97-2.22,2.11-2.93-.86-.72-2.97,2.22-2.11M16.5,9.88l-3.05,2.91.99,4.1,4.04,1.19,3.05-2.91-.99-4.1-4.04-1.19h0Z"/>
          </g>
        </g>
        <g>
          <path class="cls-2" d="M11.5,20.5c-4.96,0-9-4.04-9-9S6.54,2.5,11.5,2.5s9,4.04,9,9-4.04,9-9,9Z"/>
          <path d="M11.5,3c4.69,0,8.5,3.81,8.5,8.5s-3.81,8.5-8.5,8.5S3,16.19,3,11.5,6.81,3,11.5,3M11.5,2C6.25,2,2,6.25,2,11.5s4.25,9.5,9.5,9.5,9.5-4.25,9.5-9.5S16.75,2,11.5,2h0Z"/>
        </g>
        <g>
          <circle class="cls-2" cx="11.5" cy="11.5" r=".5"/>
          <path d="M11.5,11c-.28,0-.5.22-.5.5s.22.5.5.5.5-.22.5-.5-.22-.5-.5-.5h0Z"/>
        </g>
        <circle class="cls-1" cx="11.5" cy="11.5" r="4.5"/>
        <g>
          <circle class="cls-2" cx="11.5" cy="11.5" r="2"/>
          <path d="M11.5,10c.83,0,1.5.67,1.5,1.5s-.67,1.5-1.5,1.5-1.5-.67-1.5-1.5.67-1.5,1.5-1.5M11.5,9c-1.38,0-2.5,1.12-2.5,2.5s1.12,2.5,2.5,2.5,2.5-1.12,2.5-2.5-1.12-2.5-2.5-2.5h0Z"/>
        </g>
        <g>
          <circle class="cls-2" cx="11.42" cy="15.64" r="1.04"/>
          <circle class="cls-2" cx="7.66" cy="13.37" r="1.04"/>
          <circle class="cls-2" cx="7.74" cy="8.99" r="1.04"/>
          <circle class="cls-2" cx="11.58" cy="6.86" r="1.04"/>
          <circle class="cls-2" cx="15.34" cy="9.13" r="1.04"/>
          <circle class="cls-2" cx="15.26" cy="13.51" r="1.04"/>
        </g>
      </g>
    </g>
  </g>
</svg>